<?xml version="1.0" encoding="utf-8"?>
<!-- Generator: Adobe Illustrator 25.0.0, SVG Export Plug-In . SVG Version: 6.00 Build 0)  -->
<svg version="1.1" id="Слой_1" xmlns="http://www.w3.org/2000/svg" xmlns:xlink="http://www.w3.org/1999/xlink" x="0px" y="0px"
	 viewBox="0 0 1920 1080" style="enable-background:new 0 0 1920 1080;" xml:space="preserve">
<style type="text/css">
	.st0{fill:#CBC121;stroke:#CBC121;stroke-miterlimit:10;}
</style>
<path class="st0" d="M1144.1,976.84c1.8,0.99,5.64-2.81,6.65-3.79c14.88-14.44,46.87-27.85,82.48-60.3
	c34.41-31.35,93.44-85,110.09-160.31c10.03-45.37,0.07-76.82-10.62-127.59c-22.53-106.98-29.88-195.95-28.12-277.27
	c0.92-42.53,6.47-106.01,30.04-183.87c-26.7,9.66-64.41,26.58-103.62,56.49c-12.36,9.43-41,32.45-68.7,67.44
	c-78.71,99.4-84.45,212.78-85.18,232.54c-2.56,69.04,13.99,126.69,28.65,177.72c15.03,52.33,26.39,69.93,36.99,126.65
	c1.9,10.16,17.26,94.44,4.68,131.86C1146.44,959.36,1140.89,975.07,1144.1,976.84z"/>
<path class="st0" d="M1267.2,121.46c-0.02-2.06-5.22-3.54-6.57-3.94c-19.88-5.89-47.26-27.18-93.01-42.29
	c-44.2-14.6-119.91-39.73-193.69-17.3c-44.46,13.51-66.98,37.62-105.97,71.84c-82.18,72.11-156.1,122.15-227.83,160.51
	c-37.51,20.06-95.56,46.36-174.96,64.02c21.51,18.53,54.75,43.09,100.05,62.59c14.28,6.14,48.39,19.81,92.46,26.79
	c125.23,19.83,226.84-30.78,244.43-39.84c61.42-31.63,103.53-74.33,140.82-112.14c38.23-38.76,48-57.3,92.22-94.36
	c7.92-6.64,73.83-61.36,112.61-68.76C1250.82,127.99,1267.24,125.12,1267.2,121.46z"/>
<path class="st0" d="M435.31,442.77c-1.67,1.19,0.09,6.3,0.53,7.64c6.55,19.67,4.76,54.31,18.54,100.47
	c13.32,44.6,36.04,121.07,96.65,168.75c36.52,28.73,69.18,33.4,119.56,45.8c106.16,26.13,189.5,58.12,262.01,94.99
	c37.92,19.28,92.7,51.83,152.62,106.85c2.89-28.25,4.01-69.56-5.93-117.86c-3.13-15.22-11.45-51.02-30.94-91.16
	C992.95,644.2,893.29,589.83,875.8,580.59c-61.09-32.27-120.21-42.37-172.55-51.31c-53.67-9.17-74.45-6.57-130.16-21.63
	c-9.98-2.7-92.57-25.43-120.83-53C450.03,452.46,438.29,440.64,435.31,442.77z"/>
</svg>
